<mxfile host="Electron" agent="Mozilla/5.0 (Windows NT 10.0; Win64; x64) AppleWebKit/537.36 (KHTML, like Gecko) draw.io/24.7.17 Chrome/128.0.6613.36 Electron/32.0.1 Safari/537.36" version="24.7.17">
  <diagram name="P치gina-1" id="Q4wFw0VlHNZr1VT-vPjS">
    <mxGraphModel dx="1036" dy="654" grid="1" gridSize="10" guides="1" tooltips="1" connect="1" arrows="1" fold="1" page="1" pageScale="1" pageWidth="827" pageHeight="1169" math="0" shadow="0">
      <root>
        <mxCell id="0" />
        <mxCell id="1" parent="0" />
        <mxCell id="XmErvemPIk9ifezOwGUF-13" style="rounded=0;orthogonalLoop=1;jettySize=auto;html=1;exitX=0.5;exitY=0.5;exitDx=0;exitDy=0;exitPerimeter=0;entryX=0;entryY=0.5;entryDx=0;entryDy=0;" edge="1" parent="1" source="XmErvemPIk9ifezOwGUF-1" target="XmErvemPIk9ifezOwGUF-4">
          <mxGeometry relative="1" as="geometry" />
        </mxCell>
        <mxCell id="XmErvemPIk9ifezOwGUF-14" style="rounded=0;orthogonalLoop=1;jettySize=auto;html=1;exitX=0.5;exitY=0.5;exitDx=0;exitDy=0;exitPerimeter=0;entryX=0;entryY=0.5;entryDx=0;entryDy=0;" edge="1" parent="1" source="XmErvemPIk9ifezOwGUF-1" target="XmErvemPIk9ifezOwGUF-6">
          <mxGeometry relative="1" as="geometry" />
        </mxCell>
        <mxCell id="XmErvemPIk9ifezOwGUF-18" style="rounded=0;orthogonalLoop=1;jettySize=auto;html=1;exitX=0.5;exitY=0.5;exitDx=0;exitDy=0;exitPerimeter=0;entryX=0;entryY=0.5;entryDx=0;entryDy=0;" edge="1" parent="1" source="XmErvemPIk9ifezOwGUF-1" target="XmErvemPIk9ifezOwGUF-12">
          <mxGeometry relative="1" as="geometry" />
        </mxCell>
        <mxCell id="XmErvemPIk9ifezOwGUF-19" style="rounded=0;orthogonalLoop=1;jettySize=auto;html=1;exitX=0.5;exitY=0.5;exitDx=0;exitDy=0;exitPerimeter=0;entryX=0;entryY=0.5;entryDx=0;entryDy=0;" edge="1" parent="1" source="XmErvemPIk9ifezOwGUF-1" target="XmErvemPIk9ifezOwGUF-10">
          <mxGeometry relative="1" as="geometry" />
        </mxCell>
        <mxCell id="XmErvemPIk9ifezOwGUF-20" style="rounded=0;orthogonalLoop=1;jettySize=auto;html=1;exitX=0.5;exitY=0.5;exitDx=0;exitDy=0;exitPerimeter=0;entryX=0;entryY=0.5;entryDx=0;entryDy=0;" edge="1" parent="1" source="XmErvemPIk9ifezOwGUF-1" target="XmErvemPIk9ifezOwGUF-8">
          <mxGeometry relative="1" as="geometry" />
        </mxCell>
        <mxCell id="XmErvemPIk9ifezOwGUF-1" value="Alumno" style="shape=umlActor;verticalLabelPosition=bottom;verticalAlign=top;html=1;" vertex="1" parent="1">
          <mxGeometry x="130" y="130" width="30" height="60" as="geometry" />
        </mxCell>
        <mxCell id="XmErvemPIk9ifezOwGUF-15" style="rounded=0;orthogonalLoop=1;jettySize=auto;html=1;exitX=0.5;exitY=0.5;exitDx=0;exitDy=0;exitPerimeter=0;entryX=0;entryY=0.5;entryDx=0;entryDy=0;" edge="1" parent="1" source="XmErvemPIk9ifezOwGUF-2" target="XmErvemPIk9ifezOwGUF-7">
          <mxGeometry relative="1" as="geometry" />
        </mxCell>
        <mxCell id="XmErvemPIk9ifezOwGUF-21" style="rounded=0;orthogonalLoop=1;jettySize=auto;html=1;exitX=0.5;exitY=0.5;exitDx=0;exitDy=0;exitPerimeter=0;entryX=0;entryY=0.5;entryDx=0;entryDy=0;" edge="1" parent="1" source="XmErvemPIk9ifezOwGUF-2" target="XmErvemPIk9ifezOwGUF-8">
          <mxGeometry relative="1" as="geometry" />
        </mxCell>
        <mxCell id="XmErvemPIk9ifezOwGUF-2" value="Sistema" style="shape=umlActor;verticalLabelPosition=bottom;verticalAlign=top;html=1;" vertex="1" parent="1">
          <mxGeometry x="130" y="440" width="30" height="60" as="geometry" />
        </mxCell>
        <mxCell id="XmErvemPIk9ifezOwGUF-4" value="Acceder al juego mediante un c칩digo" style="ellipse;whiteSpace=wrap;html=1;" vertex="1" parent="1">
          <mxGeometry x="500" y="60" width="140" height="70" as="geometry" />
        </mxCell>
        <mxCell id="XmErvemPIk9ifezOwGUF-16" style="rounded=0;orthogonalLoop=1;jettySize=auto;html=1;exitX=0.5;exitY=0.5;exitDx=0;exitDy=0;exitPerimeter=0;entryX=0;entryY=0.5;entryDx=0;entryDy=0;" edge="1" parent="1" source="XmErvemPIk9ifezOwGUF-5" target="XmErvemPIk9ifezOwGUF-11">
          <mxGeometry relative="1" as="geometry" />
        </mxCell>
        <mxCell id="XmErvemPIk9ifezOwGUF-17" style="rounded=0;orthogonalLoop=1;jettySize=auto;html=1;exitX=0.5;exitY=0.5;exitDx=0;exitDy=0;exitPerimeter=0;entryX=0;entryY=0.5;entryDx=0;entryDy=0;" edge="1" parent="1" source="XmErvemPIk9ifezOwGUF-5" target="XmErvemPIk9ifezOwGUF-9">
          <mxGeometry relative="1" as="geometry" />
        </mxCell>
        <mxCell id="XmErvemPIk9ifezOwGUF-5" value="Profesor" style="shape=umlActor;verticalLabelPosition=bottom;verticalAlign=top;html=1;" vertex="1" parent="1">
          <mxGeometry x="130" y="280" width="30" height="60" as="geometry" />
        </mxCell>
        <mxCell id="XmErvemPIk9ifezOwGUF-6" value="Responder preguntas matem치ticas" style="ellipse;whiteSpace=wrap;html=1;" vertex="1" parent="1">
          <mxGeometry x="500" y="150" width="140" height="70" as="geometry" />
        </mxCell>
        <mxCell id="XmErvemPIk9ifezOwGUF-7" value="Avanzar o retroceder en la carrera" style="ellipse;whiteSpace=wrap;html=1;" vertex="1" parent="1">
          <mxGeometry x="500" y="240" width="140" height="70" as="geometry" />
        </mxCell>
        <mxCell id="XmErvemPIk9ifezOwGUF-8" value="Interactuar con casillas especiales" style="ellipse;whiteSpace=wrap;html=1;" vertex="1" parent="1">
          <mxGeometry x="500" y="650" width="140" height="70" as="geometry" />
        </mxCell>
        <mxCell id="XmErvemPIk9ifezOwGUF-9" value="Gestionar partidas" style="ellipse;whiteSpace=wrap;html=1;" vertex="1" parent="1">
          <mxGeometry x="500" y="400" width="140" height="70" as="geometry" />
        </mxCell>
        <mxCell id="XmErvemPIk9ifezOwGUF-10" value="Recibir retroalimentaci칩n sobre la respuesta" style="ellipse;whiteSpace=wrap;html=1;" vertex="1" parent="1">
          <mxGeometry x="500" y="570" width="140" height="70" as="geometry" />
        </mxCell>
        <mxCell id="XmErvemPIk9ifezOwGUF-11" value="Configurar preguntas" style="ellipse;whiteSpace=wrap;html=1;" vertex="1" parent="1">
          <mxGeometry x="500" y="320" width="140" height="70" as="geometry" />
        </mxCell>
        <mxCell id="XmErvemPIk9ifezOwGUF-12" value="Lanzar dado virtual" style="ellipse;whiteSpace=wrap;html=1;" vertex="1" parent="1">
          <mxGeometry x="500" y="490" width="140" height="70" as="geometry" />
        </mxCell>
      </root>
    </mxGraphModel>
  </diagram>
</mxfile>
